<svg width="207" height="63" viewBox="0 0 207 63" fill="none" xmlns="http://www.w3.org/2000/svg">
<path d="M24 7.5L40.9706 14.5294L48 31.5L40.9706 48.4706L24 55.5L7.02944 48.4706L0 31.5L7.02944 14.5294L24 7.5Z" fill="#0000AC"/>
<path d="M16.925 22.75H19.925L23.225 32.8C23.3917 33.2833 23.55 33.7583 23.7 34.225C23.85 34.675 23.9917 35.1333 24.125 35.6H24.175C24.3083 35.1333 24.4417 34.6833 24.575 34.25C24.725 33.8167 24.8917 33.3333 25.075 32.8L28.3 22.75H31.3L32.675 38.5H30.375L29.725 30.15C29.6583 29.3333 29.6083 28.525 29.575 27.725C29.5417 26.9083 29.5083 26.0833 29.475 25.25H29.425C29.1917 26.0667 28.95 26.8833 28.7 27.7C28.4667 28.5167 28.2167 29.3333 27.95 30.15L25.175 38.5H23.075L20.3 30.125C20.0167 29.275 19.7583 28.4667 19.525 27.7C19.2917 26.9167 19.0583 26.1 18.825 25.25H18.775C18.7417 26.0667 18.6917 26.8833 18.625 27.7C18.575 28.5167 18.5167 29.3333 18.45 30.15L17.85 38.5H15.6L16.925 22.75Z" fill="white"/>
<path d="M62.446 19.06H67.006L72.022 34.336C72.2753 35.0707 72.516 35.7927 72.744 36.502C72.972 37.186 73.1873 37.8827 73.39 38.592H73.466C73.6687 37.8827 73.8713 37.1987 74.074 36.54C74.302 35.8813 74.5553 35.1467 74.834 34.336L79.736 19.06H84.296L86.386 43H82.89L81.902 30.308C81.8007 29.0667 81.7247 27.838 81.674 26.622C81.6233 25.3807 81.5727 24.1267 81.522 22.86H81.446C81.0913 24.1013 80.724 25.3427 80.344 26.584C79.9893 27.8253 79.6093 29.0667 79.204 30.308L74.986 43H71.794L67.576 30.27C67.1453 28.978 66.7527 27.7493 66.398 26.584C66.0433 25.3933 65.6887 24.152 65.334 22.86H65.258C65.2073 24.1013 65.1313 25.3427 65.03 26.584C64.954 27.8253 64.8653 29.0667 64.764 30.308L63.852 43H60.432L62.446 19.06ZM106.68 34.45H93.8738V34.602C93.8738 36.578 94.4058 38.098 95.4698 39.162C96.5591 40.226 98.0284 40.758 99.8778 40.758C100.84 40.758 101.689 40.682 102.424 40.53C103.184 40.378 104.007 40.1247 104.894 39.77L105.578 42.24C104.843 42.5693 103.969 42.8353 102.956 43.038C101.968 43.2407 100.904 43.342 99.7638 43.342C98.4718 43.342 97.2558 43.1647 96.1158 42.81C95.0011 42.4553 94.0131 41.9107 93.1518 41.176C92.2904 40.416 91.6064 39.4533 91.0998 38.288C90.6184 37.1227 90.3778 35.7293 90.3778 34.108C90.3778 32.7147 90.5804 31.448 90.9858 30.308C91.4164 29.168 92.0118 28.2053 92.7718 27.42C93.5318 26.6093 94.4438 25.9887 95.5078 25.558C96.5971 25.102 97.8131 24.874 99.1558 24.874C100.296 24.874 101.322 25.064 102.234 25.444C103.171 25.824 103.969 26.356 104.628 27.04C105.286 27.724 105.793 28.5473 106.148 29.51C106.502 30.4727 106.68 31.5367 106.68 32.702V34.45ZM103.222 32.056C103.222 31.3973 103.133 30.7893 102.956 30.232C102.804 29.6493 102.55 29.1427 102.196 28.712C101.866 28.2813 101.436 27.9393 100.904 27.686C100.372 27.4327 99.7258 27.306 98.9658 27.306C97.5724 27.306 96.4324 27.7493 95.5458 28.636C94.6844 29.5227 94.1524 30.688 93.9498 32.132L103.222 32.056ZM122.765 16.02H126.109V43H123.297L122.879 41.024H122.765C121.979 41.8347 121.181 42.43 120.371 42.81C119.585 43.1647 118.585 43.342 117.369 43.342C116.406 43.342 115.469 43.152 114.557 42.772C113.67 42.392 112.872 41.822 112.163 41.062C111.453 40.302 110.883 39.352 110.453 38.212C110.022 37.0467 109.807 35.6787 109.807 34.108C109.807 32.7147 109.984 31.448 110.339 30.308C110.719 29.168 111.251 28.1927 111.935 27.382C112.619 26.5713 113.455 25.9507 114.443 25.52C115.431 25.0893 116.558 24.874 117.825 24.874C118.762 24.874 119.649 25.026 120.485 25.33C121.346 25.6087 122.106 26.0393 122.765 26.622V16.02ZM122.765 29.434C121.574 28.0913 120.168 27.42 118.547 27.42C117.863 27.42 117.191 27.5467 116.533 27.8C115.899 28.028 115.329 28.408 114.823 28.94C114.341 29.472 113.949 30.156 113.645 30.992C113.341 31.828 113.189 32.8287 113.189 33.994C113.189 35.21 113.328 36.2487 113.607 37.11C113.885 37.946 114.253 38.6427 114.709 39.2C115.19 39.732 115.722 40.1247 116.305 40.378C116.913 40.6313 117.521 40.758 118.129 40.758C120.029 40.758 121.574 39.9347 122.765 38.288V29.434ZM131.909 43V25.14H135.253V43H131.909ZM133.581 20.542C132.998 20.542 132.491 20.352 132.061 19.972C131.655 19.5667 131.453 19.0727 131.453 18.49C131.453 17.9073 131.655 17.4133 132.061 17.008C132.491 16.6027 132.998 16.4 133.581 16.4C134.138 16.4 134.632 16.6027 135.063 17.008C135.493 17.4133 135.709 17.9073 135.709 18.49C135.709 19.0727 135.493 19.5667 135.063 19.972C134.632 20.352 134.138 20.542 133.581 20.542ZM149.297 40.758C150.108 40.758 150.817 40.6693 151.425 40.492C152.033 40.3147 152.629 40.0867 153.211 39.808L153.933 42.316C152.565 43 150.931 43.342 149.031 43.342C147.739 43.342 146.523 43.152 145.383 42.772C144.269 42.392 143.281 41.822 142.419 41.062C141.583 40.2767 140.925 39.314 140.443 38.174C139.962 37.0087 139.721 35.6533 139.721 34.108C139.721 32.6893 139.949 31.41 140.405 30.27C140.861 29.13 141.495 28.1673 142.305 27.382C143.116 26.5713 144.091 25.9507 145.231 25.52C146.371 25.0893 147.625 24.874 148.993 24.874C149.779 24.874 150.539 24.9373 151.273 25.064C152.033 25.1653 152.895 25.4313 153.857 25.862L153.097 28.408C151.932 27.7493 150.678 27.42 149.335 27.42C147.486 27.42 145.991 28.0027 144.851 29.168C143.711 30.308 143.141 31.9167 143.141 33.994C143.141 35.286 143.319 36.3627 143.673 37.224C144.028 38.0853 144.497 38.782 145.079 39.314C145.662 39.8207 146.321 40.188 147.055 40.416C147.79 40.644 148.537 40.758 149.297 40.758ZM157.733 26.736C158.341 26.432 158.911 26.166 159.443 25.938C159.975 25.6847 160.507 25.482 161.039 25.33C161.571 25.178 162.116 25.064 162.673 24.988C163.231 24.912 163.839 24.874 164.497 24.874C165.485 24.874 166.385 24.988 167.195 25.216C168.031 25.4187 168.741 25.7733 169.323 26.28C169.931 26.7867 170.4 27.458 170.729 28.294C171.059 29.1047 171.223 30.1307 171.223 31.372V43H168.449L168.031 41.024H167.955C167.17 41.86 166.309 42.4553 165.371 42.81C164.434 43.1647 163.395 43.342 162.255 43.342C161.394 43.342 160.596 43.228 159.861 43C159.152 42.7467 158.531 42.4047 157.999 41.974C157.467 41.518 157.049 40.9733 156.745 40.34C156.467 39.7067 156.327 38.9973 156.327 38.212C156.327 36.3373 157.062 34.9187 158.531 33.956C160.026 32.968 161.989 32.474 164.421 32.474H167.841V30.954C167.841 29.662 167.512 28.788 166.853 28.332C166.195 27.8507 165.308 27.61 164.193 27.61C163.535 27.61 162.775 27.724 161.913 27.952C161.077 28.1547 160.115 28.56 159.025 29.168L157.733 26.736ZM167.879 34.754L165.067 34.83C163.167 34.8807 161.812 35.2227 161.001 35.856C160.216 36.464 159.823 37.2113 159.823 38.098C159.823 38.63 159.912 39.086 160.089 39.466C160.267 39.8207 160.495 40.0993 160.773 40.302C161.077 40.5047 161.419 40.6567 161.799 40.758C162.205 40.834 162.623 40.872 163.053 40.872C163.889 40.872 164.738 40.682 165.599 40.302C166.461 39.8967 167.221 39.2633 167.879 38.402V34.754ZM176.154 43V25.14H178.662L179.232 28.712C179.663 27.572 180.372 26.6473 181.36 25.938C182.348 25.2287 183.488 24.874 184.78 24.874C185.439 24.874 185.984 24.9247 186.414 25.026C186.845 25.1273 187.238 25.254 187.592 25.406L186.946 28.332C186.642 28.18 186.3 28.0533 185.92 27.952C185.566 27.8507 185.135 27.8 184.628 27.8C183.894 27.8 183.21 27.9267 182.576 28.18C181.968 28.4333 181.424 28.8133 180.942 29.32C180.486 29.8267 180.119 30.46 179.84 31.22C179.587 31.9547 179.46 32.8033 179.46 33.766V43H176.154ZM204.736 34.45H191.93V34.602C191.93 36.578 192.462 38.098 193.526 39.162C194.615 40.226 196.085 40.758 197.934 40.758C198.897 40.758 199.745 40.682 200.48 40.53C201.24 40.378 202.063 40.1247 202.95 39.77L203.634 42.24C202.899 42.5693 202.025 42.8353 201.012 43.038C200.024 43.2407 198.96 43.342 197.82 43.342C196.528 43.342 195.312 43.1647 194.172 42.81C193.057 42.4553 192.069 41.9107 191.208 41.176C190.347 40.416 189.663 39.4533 189.156 38.288C188.675 37.1227 188.434 35.7293 188.434 34.108C188.434 32.7147 188.637 31.448 189.042 30.308C189.473 29.168 190.068 28.2053 190.828 27.42C191.588 26.6093 192.5 25.9887 193.564 25.558C194.653 25.102 195.869 24.874 197.212 24.874C198.352 24.874 199.378 25.064 200.29 25.444C201.227 25.824 202.025 26.356 202.684 27.04C203.343 27.724 203.849 28.5473 204.204 29.51C204.559 30.4727 204.736 31.5367 204.736 32.702V34.45ZM201.278 32.056C201.278 31.3973 201.189 30.7893 201.012 30.232C200.86 29.6493 200.607 29.1427 200.252 28.712C199.923 28.2813 199.492 27.9393 198.96 27.686C198.428 27.4327 197.782 27.306 197.022 27.306C195.629 27.306 194.489 27.7493 193.602 28.636C192.741 29.5227 192.209 30.688 192.006 32.132L201.278 32.056Z" fill="#0000AC"/>
</svg>
