<svg width="48" height="48" viewBox="0 0 48 48" fill="none" xmlns="http://www.w3.org/2000/svg">
<path d="M23.535 0L40.1768 6.89325L47.07 23.535L40.1768 40.1768L23.535 47.07L6.89325 40.1768L0 23.535L6.89325 6.89325L23.535 0Z" fill="#0000AC"/>
<path d="M16.5968 15.497H19.5387L22.7748 25.3523C22.9382 25.8263 23.0935 26.2921 23.2406 26.7497C23.3877 27.191 23.5266 27.6404 23.6574 28.098H23.7064C23.8371 27.6404 23.9679 27.1991 24.0986 26.7742C24.2457 26.3493 24.4092 25.8753 24.5889 25.3523L27.7515 15.497H30.6933L32.0417 30.9419H29.7863L29.1489 22.7536C29.0835 21.9528 29.0344 21.1601 29.0018 20.3756C28.9691 19.5748 28.9364 18.7658 28.9037 17.9486H28.8547C28.6259 18.7494 28.3889 19.5503 28.1437 20.3511C27.9149 21.152 27.6697 21.9528 27.4082 22.7536L24.687 30.9419H22.6277L19.9065 22.7291C19.6286 21.8956 19.3753 21.1029 19.1465 20.3511C18.9177 19.583 18.6888 18.7821 18.46 17.9486H18.411C18.3783 18.7494 18.3293 19.5503 18.2639 20.3511C18.2149 21.152 18.1577 21.9528 18.0923 22.7536L17.5039 30.9419H15.2975L16.5968 15.497Z" fill="white"/>
</svg>
